<?xml version="1.0" encoding="UTF-8" standalone="no"?>
<svg id="svg5241" xmlns="http://www.w3.org/2000/svg" xmlns:osb="http://www.openswatchbook.org/uri/2009/osb" height="75" width="300" version="1.1" xmlns:xlink="http://www.w3.org/1999/xlink" viewBox="0 0 79.374998 19.843749">
<defs id="defs5235">
<linearGradient id="linearGradient5130" y2="-131.14" gradientUnits="userSpaceOnUse" x2="573.9" gradientTransform="matrix(1.9224 0 0 1.904 -135.18 -239.93)" y1="-46.574" x1="573.9">
<stop id="stop5249" stop-color="#a8cb00" offset="0"/>
<stop id="stop5251" stop-color="#88a000" offset=".55549"/>
<stop id="stop5253" stop-color="#f1ffa2" offset=".55559"/>
<stop id="stop5255" stop-color="#a8cb00" offset="1"/>
</linearGradient>
<linearGradient id="linearGradient5931" y2="88.097" gradientUnits="userSpaceOnUse" x2="556.16" gradientTransform="matrix(1.963 0 0 1.9438 -82.502 -582.93)" y1="88.097" x1="56.161">
<stop id="stop5818" stop-color="#000000" stop-opacity=".73404" offset="0"/>
</linearGradient>
</defs>
<g id="layer1" transform="translate(-54.049 -96.147)">
<g id="g5811" fill-rule="evenodd" transform="matrix(.079001 0 0 .079001 51.858 138.61)">
<path id="path5126" style="paint-order:markers stroke fill" d="m27.742-537.49v64.253h46.157v128.83h-46.157v58.106h991.12l4.7364-58.106-40.114-73.616 39.822-79.794-3.2872-39.669zm23.408 19.441h9.913v12.982h-9.913zm33.193 0h9.913v12.982h-9.912zm33.206 0h9.9258v12.982h-9.9258zm33.206 0h9.9258v12.982h-9.9258zm33.206 0h9.913v12.982h-9.913zm33.206 0h9.913v12.982h-9.913zm33.193 0h9.9258v12.982h-9.9258zm33.206 0h9.9258v12.982h-9.9258zm33.206 0h9.9386v12.982h-9.9386zm33.206 0h9.913v12.982h-9.913zm33.206 0h9.913v12.982h-9.913zm33.193 0h9.9386v12.982h-9.9386zm33.206 0h9.9387v12.982h-9.9387zm33.219 0h9.9001v12.982h-9.9001zm33.193 0h9.913v12.982h-9.913zm33.206 0h9.9258v12.982h-9.9258zm33.206 0h9.9258v12.982h-9.9258zm33.206 0h9.913v12.982h-9.913zm33.193 0h9.913v12.982h-9.913zm33.206 0h9.913v12.982h-9.913zm33.206 0h9.9258v12.982h-9.9258zm33.206 0h9.9258v12.982h-9.9258zm33.206 0h9.913v12.982h-9.913zm33.206 0h9.9001v12.982h-9.9001zm33.193 0h9.9387v12.982h-9.9387zm33.206 0h9.9258v12.982h-9.9258zm33.206 0h9.9386v12.982h-9.9386zm33.206 0h9.9129v12.982h-9.9129zm33.206 0h9.9258v12.982h-9.9258zm-929.77 203.84h9.913v12.982h-9.913zm33.193 0h9.913v12.982h-9.913zm33.206 0h9.9258v12.982h-9.9258zm33.206 0h9.9258v12.982h-9.9258zm33.206 0h9.913v12.982h-9.913zm33.206 0h9.913v12.982h-9.913zm33.193 0h9.9258v12.982h-9.9258zm33.206 0h9.9258v12.982h-9.9258zm33.206 0h9.9386v12.982h-9.9386zm33.206 0h9.913v12.982h-9.913zm33.206 0h9.913v12.982h-9.913zm33.193 0h9.9386v12.982h-9.9386zm33.206 0h9.9387v12.982h-9.9387zm33.219 0h9.9001v12.982h-9.9001zm33.193 0h9.913v12.982h-9.913zm33.206 0h9.9258v12.982h-9.9258zm33.206 0h9.9258v12.982h-9.9258zm33.206 0h9.913v12.982h-9.913zm33.193 0h9.913v12.982h-9.913zm33.206 0h9.913v12.982h-9.913zm33.206 0h9.9258v12.982h-9.9258zm33.206 0h9.9258v12.982h-9.9258zm33.206 0h9.913v12.982h-9.913zm33.206 0h9.9001v12.982h-9.9001zm33.193 0h9.9387v12.982h-9.9387zm33.206 0h9.9258v12.982h-9.9258zm33.206 0h9.9386v12.982h-9.9386zm33.206 0h9.9129v12.982h-9.9129zm33.206 0h9.9258v12.982h-9.9258z" fill="url(#linearGradient5931)"/>
<path id="path5261" d="m34.547-537.49v39.669h50.681v164.2h-50.681v37.507h971.55v-37.507l-36.898-84.409 36.898-79.794v-39.669zm14.34 9.8531h14.632c0.30613 0 0.85755 0.30332 0.85755 1.0162v17.323c0 0.53083-0.30613 1.0162-0.85755 1.0162h-14.632c-0.30615 0-0.85757-0.30333-0.85757-1.0162v-17.323c0-0.53085 0.30613-1.0162 0.85757-1.0162zm33.202 0h14.632c0.30612 0 0.85752 0.30332 0.85752 1.0162v17.323c0 0.53083-0.30613 1.0162-0.85752 1.0162h-14.632c-0.30616 0-0.85754-0.30333-0.85754-1.0162v-17.323c0-0.53085 0.30617-1.0162 0.85754-1.0162zm33.202 0h14.649c0.30613 0 0.85754 0.30332 0.85754 1.0162v17.323c0 0.53083-0.30615 1.0162-0.85754 1.0162h-14.65c-0.30614 0-0.85755-0.30333-0.85755-1.0162v-17.323c0-0.53085 0.30612-1.0162 0.85755-1.0162zm33.204 0h14.649c0.30611 0 0.85752 0.30332 0.85752 1.0162v17.323c0 0.53083-0.30617 1.0162-0.85752 1.0162h-14.649c-0.30615 0-0.85756-0.30333-0.85756-1.0162v-17.323c0-0.53085 0.30617-1.0162 0.85756-1.0162zm33.205 0h14.632c0.30615 0 0.85754 0.30332 0.85754 1.0162v17.323c0 0.53083-0.30615 1.0162-0.85754 1.0162h-14.632c-0.30618 0-0.85753-0.30333-0.85753-1.0162v-17.323c0-0.53085 0.30616-1.0162 0.85753-1.0162zm33.204 0h14.632c0.30615 0 0.85755 0.30332 0.85755 1.0162v17.323c0 0.53083-0.30612 1.0162-0.85755 1.0162h-14.632c-0.30614 0-0.85756-0.30333-0.85756-1.0162v-17.323c0-0.53085 0.30616-1.0162 0.85756-1.0162zm33.202 0h14.632c0.30616 0 0.85757 0.30332 0.85757 1.0162v17.323c0 0.53083-0.30615 1.0162-0.85757 1.0162h-14.632c-0.30614 0-0.85753-0.30333-0.85753-1.0162v-17.323c0-0.53085 0.30615-1.0162 0.85753-1.0162zm33.202 0h14.649c0.30615 0 0.85757 0.30332 0.85757 1.0162v17.323c0 0.53083-0.30615 1.0162-0.85757 1.0162h-14.649c-0.30611 0-0.85754-0.30333-0.85754-1.0162v-17.323c0-0.53085 0.30615-1.0162 0.85754-1.0162zm33.204 0h14.649c0.30615 0 0.85756 0.30332 0.85756 1.0162v17.323c0 0.53083-0.30615 1.0162-0.85756 1.0162h-14.649c-0.30615 0-0.85753-0.30333-0.85753-1.0162v-17.323c0-0.53085 0.30613-1.0162 0.85753-1.0162zm33.206 0h14.64c0.30615 0 0.85755 0.30332 0.85755 1.0162v17.323c0 0.53083-0.30615 1.0162-0.85755 1.0162h-14.632c-0.30613 0-0.85753-0.30333-0.85753-1.0162v-17.323c0-0.53085 0.30611-1.0162 0.85753-1.0162zm33.202 0h14.632c0.30613 0 0.85752 0.30332 0.85752 1.0162v17.323c0 0.53083-0.30613 1.0162-0.85752 1.0162h-14.632c-0.30613 0-0.85754-0.30333-0.85754-1.0162v-17.323c0-0.53085 0.30613-1.0162 0.85754-1.0162zm33.204 0h14.649c0.30615 0 0.85754 0.30332 0.85754 1.0162v17.323c0 0.53083-0.30613 1.0162-0.85754 1.0162h-14.649c-0.30611 0-0.85753-0.30333-0.85753-1.0162v-17.323c0-0.53085 0.30613-1.0162 0.85753-1.0162zm33.203 0h14.649c0.30616 0 0.85753 0.30332 0.85753 1.0162v17.323c0 0.53083-0.30611 1.0162-0.85753 1.0162h-14.649c-0.30611 0-0.85753-0.30333-0.85753-1.0162v-17.323c0-0.53085 0.30614-1.0162 0.85753-1.0162zm33.207 0h14.632c0.30612 0 0.85755 0.30332 0.85755 1.0162v17.323c0 0.53083-0.30615 1.0162-0.85755 1.0162h-14.632c-0.30615 0-0.85754-0.30333-0.85754-1.0162v-17.323c0-0.53085 0.30613-1.0162 0.85755-1.0162zm33.202 0h14.632c0.30613 0 0.85754 0.30332 0.85754 1.0162v17.323c0 0.53083-0.30614 1.0162-0.85754 1.0162h-14.632c-0.30616 0-0.85753-0.30333-0.85753-1.0162v-17.323c0-0.53085 0.30611-1.0162 0.85753-1.0162zm33.202 0h14.649c0.30612 0 0.85754 0.30332 0.85754 1.0162v17.323c0 0.53083-0.30612 1.0162-0.85754 1.0162h-14.63c-0.30619 0-0.85755-0.30333-0.85755-1.0162v-17.323c0-0.53085 0.30611-1.0162 0.85755-1.0162zm33.204 0h14.649c0.30617 0 0.8576 0.30332 0.8576 1.0162v17.323c0 0.53083-0.30617 1.0162-0.8576 1.0162h-14.649c-0.30619 0-0.85752-0.30333-0.85752-1.0162v-17.323c0-0.53085 0.30607-1.0162 0.85752-1.0162zm33.206 0h14.632c0.30607 0 0.85754 0.30332 0.85754 1.0162v17.323c0 0.53083-0.30617 1.0162-0.85754 1.0162h-14.632c-0.30619 0-0.85762-0.30333-0.85762-1.0162v-17.323c0-0.53085 0.30619-1.0162 0.85762-1.0162zm33.202 0h14.632c0.30611 0 0.85756 0.30332 0.85756 1.0162v17.323c0 0.53083-0.30618 1.0162-0.85756 1.0162h-14.632c-0.30612 0-0.85754-0.30333-0.85754-1.0162v-17.323c0-0.53085 0.30616-1.0162 0.85754-1.0162zm33.204 0h14.632c0.3062 0 0.85751 0.30332 0.85751 1.0162v17.323c0 0.53083-0.30607 1.0162-0.85751 1.0162h-14.632c-0.30616 0-0.85753-0.30333-0.85753-1.0162v-17.323c0-0.53085 0.30611-1.0162 0.85753-1.0162zm33.203 0h14.649c0.30608 0 0.85752 0.30332 0.85752 1.0162v17.323c0 0.53083-0.30617 1.0162-0.85752 1.0162h-14.649c-0.30613 0-0.85751-0.30333-0.85751-1.0162v-17.323c0-0.53085 0.30612-1.0162 0.85751-1.0162zm33.202 0h14.649c0.30615 0 0.8576 0.30332 0.8576 1.0162v17.323c0 0.53083-0.30618 1.0162-0.8576 1.0162h-14.649c-0.30619 0-0.85761-0.30333-0.85761-1.0162v-17.323c0-0.53085 0.30619-1.0162 0.85761-1.0162zm33.207 0h14.632c0.30616 0 0.85761 0.30332 0.85761 1.0162v17.323c0 0.53083-0.30618 1.0162-0.85761 1.0162h-14.632c-0.30607 0-0.8575-0.30333-0.8575-1.0162v-17.323c0-0.53085 0.30617-1.0162 0.8575-1.0162zm33.202 0h14.632c0.30619 0 0.8576 0.30332 0.8576 1.0162v17.323c0 0.53083-0.30616 1.0162-0.8576 1.0162h-14.632c-0.30608 0-0.85752-0.30333-0.85752-1.0162v-17.323c0-0.53085 0.30614-1.0162 0.85752-1.0162zm33.202 0h14.649c0.30613 0 0.85761 0.30332 0.85761 1.0162v17.323c0 0.53083-0.30618 1.0162-0.85761 1.0162h-14.649c-0.30617 0-0.85761-0.30333-0.85761-1.0162v-17.323c0-0.53085 0.30618-1.0162 0.85761-1.0162zm33.204 0h14.649c0.30614 0 0.85753 0.30332 0.85753 1.0162v17.323c0 0.53083-0.3061 1.0162-0.85753 1.0162h-14.649c-0.30616 0-0.85754-0.30333-0.85754-1.0162v-17.323c0-0.53085 0.30611-1.0162 0.85754-1.0162zm33.206 0h14.649c0.3062 0 0.85757 0.30332 0.85757 1.0162v17.323c0 0.53083-0.30613 1.0162-0.85757 1.0162h-14.649c-0.30611 0-0.85753-0.30333-0.85753-1.0162v-17.323c0-0.53085 0.3061-1.0162 0.85753-1.0162zm33.204 0h14.632c0.30612 0 0.85751 0.30332 0.85751 1.0162v17.323c0 0.53083-0.30619 1.0162-0.85751 1.0162h-14.632c-0.30623 0-0.85761-0.30333-0.85761-1.0162v-17.323c0-0.53085 0.30611-1.0162 0.85761-1.0162zm33.203 0h14.649c0.30607 0 0.85747 0.30332 0.85747 1.0162v17.323c0 0.53083-0.30607 1.0162-0.85747 1.0162h-14.649c-0.30616 0-0.85756-0.30333-0.85756-1.0162v-17.323c0-0.53085 0.30607-1.0162 0.85756-1.0162zm-842.87 29.821h260.11v124.6h-32.2v-102.37h-52.524v89.111l-17.851-89.087h-73.806l-20.939 109.83-22.661-52.283 28.155-57.545h-49.436l-18.806 43.911zm312.49 0h76.621l8.3243 9.7592h95.804v117.55l-22.27-105.07h-73.46l-21.971 111.19-23.343-53.642 28.837-57.545h-48.06l-20.426 46.59zm411.23 0h99.65l-28.989 66.756v-44.509h-52.525v4.4211h-0.0528v116.33l-25.69-120.75h-72.779l-18.194 91.809v-104.64h90.973zm-151.08 10.783v142.71h0.0528v10.699h-260.21v-10.699h0.004v-52.7l18.71 52.7h93.776l2.6645-24.481h16.307l2.6645 24.481h99.46l0.0177-142.71zm-449.46 43.582 5.4515 49.831h-10.86zm312.64 0 5.4514 49.831h-10.888zm246.08 0 5.4362 49.831h-10.888zm-681.89 48.927 18.461 50.204h93.875l2.6645-24.481h16.307l2.6645 24.481h126.11v10.699h-260.07zm794.34 0.6825 25.107 60.274h-25.107v-10.7zm-120.61 25.087h16.307l2.6645 24.481h49.032v10.7h-116.66v-10.7h45.995zm-760.56 44.957h14.632c0.30613 0 0.85755 0.30334 0.85755 1.0161v17.323c0 0.53081-0.30613 1.0161-0.85755 1.0161h-14.605c-0.30615 0-0.85757-0.3033-0.85757-1.0161v-17.323c0-0.5308 0.30613-1.0161 0.85757-1.0161zm33.202 0h14.632c0.30612 0 0.85752 0.30334 0.85752 1.0161v17.323c0 0.53081-0.30613 1.0161-0.85752 1.0161h-14.605c-0.30616 0-0.85754-0.3033-0.85754-1.0161v-17.323c0-0.5308 0.30617-1.0161 0.85754-1.0161zm33.202 0h14.649c0.30613 0 0.85754 0.30334 0.85754 1.0161v17.323c0 0.53081-0.30615 1.0161-0.85754 1.0161h-14.62c-0.30614 0-0.85755-0.3033-0.85755-1.0161v-17.323c0-0.5308 0.30612-1.0161 0.85755-1.0161zm33.204 0h14.649c0.30611 0 0.85752 0.30334 0.85752 1.0161v17.323c0 0.53081-0.30617 1.0161-0.85752 1.0161h-14.649c-0.30615 0-0.85756-0.3033-0.85756-1.0161v-17.323c0-0.5308 0.30617-1.0161 0.85756-1.0161zm33.205 0h14.632c0.30615 0 0.85754 0.30334 0.85754 1.0161v17.323c0 0.53081-0.30615 1.0161-0.85754 1.0161h-14.632c-0.30618 0-0.85753-0.3033-0.85753-1.0161v-17.323c0-0.5308 0.30616-1.0161 0.85753-1.0161zm33.204 0h14.632c0.30615 0 0.85755 0.30334 0.85755 1.0161v17.323c0 0.53081-0.30612 1.0161-0.85755 1.0161h-14.632c-0.30614 0-0.85756-0.3033-0.85756-1.0161v-17.323c0-0.5308 0.30616-1.0161 0.85756-1.0161zm33.202 0h14.632c0.30616 0 0.85757 0.30334 0.85757 1.0161v17.323c0 0.53081-0.30615 1.0161-0.85757 1.0161h-14.632c-0.30614 0-0.85753-0.3033-0.85753-1.0161v-17.323c0-0.5308 0.30615-1.0161 0.85753-1.0161zm33.202 0h14.649c0.30615 0 0.85757 0.30334 0.85757 1.0161v17.323c0 0.53081-0.30615 1.0161-0.85757 1.0161h-14.649c-0.30611 0-0.85754-0.3033-0.85754-1.0161v-17.323c0-0.5308 0.30615-1.0161 0.85754-1.0161zm33.204 0h14.649c0.30615 0 0.85756 0.30334 0.85756 1.0161v17.323c0 0.53081-0.30615 1.0161-0.85756 1.0161h-14.649c-0.30615 0-0.85753-0.3033-0.85753-1.0161v-17.323c0-0.5308 0.30613-1.0161 0.85753-1.0161zm33.206 0h14.68c0.30615 0 0.85755 0.30334 0.85755 1.0161v17.323c0 0.53081-0.30615 1.0161-0.85755 1.0161h-14.632c-0.30613 0-0.85753-0.3033-0.85753-1.0161v-17.323c0-0.5308 0.30611-1.0161 0.85753-1.0161zm33.202 0h14.632c0.30613 0 0.85752 0.30334 0.85752 1.0161v17.323c0 0.53081-0.30613 1.0161-0.85752 1.0161h-14.632c-0.30613 0-0.85754-0.3033-0.85754-1.0161v-17.323c0-0.5308 0.30613-1.0161 0.85754-1.0161zm33.204 0h14.649c0.30615 0 0.85754 0.30334 0.85754 1.0161v17.323c0 0.53081-0.30613 1.0161-0.85754 1.0161h-14.649c-0.30611 0-0.85753-0.3033-0.85753-1.0161v-17.323c0-0.5308 0.30613-1.0161 0.85753-1.0161zm33.203 0h14.649c0.30616 0 0.85753 0.30334 0.85753 1.0161v17.323c0 0.53081-0.30611 1.0161-0.85753 1.0161h-14.649c-0.30611 0-0.85753-0.3033-0.85753-1.0161v-17.323c0-0.5308 0.30614-1.0161 0.85753-1.0161zm33.207 0h14.632c0.30612 0 0.85755 0.30334 0.85755 1.0161v17.323c0 0.53081-0.30615 1.0161-0.85755 1.0161h-14.632c-0.30615 0-0.85754-0.3033-0.85754-1.0161v-17.323c0-0.5308 0.30613-1.0161 0.85755-1.0161zm33.202 0h14.632c0.30613 0 0.85754 0.30334 0.85754 1.0161v17.323c0 0.53081-0.30614 1.0161-0.85754 1.0161h-14.632c-0.30616 0-0.85753-0.3033-0.85753-1.0161v-17.323c0-0.5308 0.30611-1.0161 0.85753-1.0161zm33.202 0h14.649c0.30612 0 0.85754 0.30334 0.85754 1.0161v17.323c0 0.53081-0.30612 1.0161-0.85754 1.0161h-14.59c-0.30619 0-0.85755-0.3033-0.85755-1.0161v-17.323c0-0.5308 0.30611-1.0161 0.85755-1.0161zm33.204 0h14.649c0.30617 0 0.8576 0.30334 0.8576 1.0161v17.323c0 0.53081-0.30617 1.0161-0.8576 1.0161h-14.649c-0.30619 0-0.85752-0.3033-0.85752-1.0161v-17.323c0-0.5308 0.30607-1.0161 0.85752-1.0161zm33.206 0h14.632c0.30607 0 0.85754 0.30334 0.85754 1.0161v17.323c0 0.53081-0.30617 1.0161-0.85754 1.0161h-14.632c-0.30619 0-0.85762-0.3033-0.85762-1.0161v-17.323c0-0.5308 0.30619-1.0161 0.85762-1.0161zm33.202 0h14.632c0.30611 0 0.85756 0.30334 0.85756 1.0161v17.323c0 0.53081-0.30618 1.0161-0.85756 1.0161h-14.632c-0.30612 0-0.85754-0.3033-0.85754-1.0161v-17.323c0-0.5308 0.30616-1.0161 0.85754-1.0161zm33.204 0h14.632c0.3062 0 0.85751 0.30334 0.85751 1.0161v17.323c0 0.53081-0.30607 1.0161-0.85751 1.0161h-14.632c-0.30616 0-0.85753-0.3033-0.85753-1.0161v-17.323c0-0.5308 0.30611-1.0161 0.85753-1.0161zm33.203 0h14.649c0.30608 0 0.85752 0.30334 0.85752 1.0161v17.323c0 0.53081-0.30617 1.0161-0.85752 1.0161h-14.649c-0.30613 0-0.85751-0.3033-0.85751-1.0161v-17.323c0-0.5308 0.30612-1.0161 0.85751-1.0161zm33.202 0h14.649c0.30615 0 0.8576 0.30334 0.8576 1.0161v17.323c0 0.53081-0.30618 1.0161-0.8576 1.0161h-14.649c-0.30619 0-0.85761-0.3033-0.85761-1.0161v-17.323c0-0.5308 0.30619-1.0161 0.85761-1.0161zm33.207 0h14.632c0.30616 0 0.85761 0.30334 0.85761 1.0161v17.323c0 0.53081-0.30618 1.0161-0.85761 1.0161h-14.632c-0.30607 0-0.8575-0.3033-0.8575-1.0161v-17.323c0-0.5308 0.30617-1.0161 0.8575-1.0161zm33.202 0h14.632c0.30619 0 0.8576 0.30334 0.8576 1.0161v17.323c0 0.53081-0.30616 1.0161-0.8576 1.0161h-14.632c-0.30608 0-0.85752-0.3033-0.85752-1.0161v-17.323c0-0.5308 0.30614-1.0161 0.85752-1.0161zm33.202 0h14.649c0.30613 0 0.85761 0.30334 0.85761 1.0161v17.323c0 0.53081-0.30618 1.0161-0.85761 1.0161h-14.649c-0.30617 0-0.85761-0.3033-0.85761-1.0161v-17.323c0-0.5308 0.30618-1.0161 0.85761-1.0161zm33.204 0h14.649c0.30614 0 0.85753 0.30334 0.85753 1.0161v17.323c0 0.53081-0.3061 1.0161-0.85753 1.0161h-14.649c-0.30616 0-0.85754-0.3033-0.85754-1.0161v-17.323c0-0.5308 0.30611-1.0161 0.85754-1.0161zm33.206 0h14.649c0.3062 0 0.85757 0.30334 0.85757 1.0161v17.323c0 0.53081-0.30613 1.0161-0.85757 1.0161h-14.649c-0.30611 0-0.85753-0.3033-0.85753-1.0161v-17.323c0-0.5308 0.3061-1.0161 0.85753-1.0161zm33.204 0h14.632c0.30612 0 0.85751 0.30334 0.85751 1.0161v17.323c0 0.53081-0.30619 1.0161-0.85751 1.0161h-14.632c-0.30623 0-0.85761-0.3033-0.85761-1.0161v-17.323c0-0.5308 0.30611-1.0161 0.85761-1.0161zm33.203 0h14.649c0.30607 0 0.85747 0.30334 0.85747 1.0161v17.323c0 0.53081-0.30607 1.0161-0.85747 1.0161h-14.649c-0.30616 0-0.85756-0.3033-0.85756-1.0161v-17.323c0-0.5308 0.30607-1.0161 0.85756-1.0161z" fill="url(#linearGradient5130)"/>
</g>
</g>
</svg>
